<svg id="Layer_1" data-name="Layer 1" xmlns="http://www.w3.org/2000/svg" xmlns:xlink="http://www.w3.org/1999/xlink" viewBox="0 0 506 506"><defs><linearGradient id="linear-gradient" x1="429" y1="496" x2="863.34" y2="496" gradientUnits="userSpaceOnUse"><stop offset="0" stop-color="#f8f8f8"/><stop offset="0.36" stop-color="#f4f4f4"/><stop offset="0.7" stop-color="#e8e8e8"/><stop offset="1" stop-color="#d8d8d8"/></linearGradient><linearGradient id="linear-gradient-2" x1="517.5" y1="339.9" x2="935" y2="339.9" xlink:href="#linear-gradient"/><linearGradient id="linear-gradient-3" x1="661" y1="479.9" x2="896.16" y2="479.9" gradientUnits="userSpaceOnUse"><stop offset="0" stop-color="#b5f"/><stop offset="1" stop-color="#2a61ff"/></linearGradient></defs><title>icon5</title><path d="M854,412.56A171,171,0,0,1,512.1,420q-.26-8,.19-15.81A33.32,33.32,0,0,1,546,373h.28a51.23,51.23,0,0,0,47.53-70.47c-6.7-16.59.29-35.48,16.48-43.09a170.32,170.32,0,0,1,72.43-16.19C775.12,243.1,853.1,320.16,854,412.56Z" transform="translate(-429 -161.25)" style="fill:#4a4e51"/><path d="M832.5,583.75a71.54,71.54,0,0,1,30.84,6.93A252.22,252.22,0,0,1,682,667.25c-139.9,0-253.64-114.3-253-254.19a253,253,0,0,1,9.5-67.72q.95-3.34,2-6.64a19.57,19.57,0,0,1,17-13.89q.61,0,1.23-.05c9.22-.13,17.11,6.19,19.92,15a18,18,0,0,1,.77,7.61.07.07,0,0,1,0,0c-.44,2.67-1.67,5.16-2.43,7.77a213,213,0,0,0-8.46,59.48c-.08,117.6,95.4,213.16,213,213.15a212,212,0,0,0,106-28.24q4.3-2.47,8.48-5.14a64.94,64.94,0,0,1,20.34-8.81A72.15,72.15,0,0,1,832.5,583.75Z" transform="translate(-429 -161.25)" style="fill:url(#linear-gradient)"/><path d="M935,414.25a252.08,252.08,0,0,1-22.43,104.3,71.74,71.74,0,0,1-23.07-52.8q0-1,0-2.06a44.66,44.66,0,0,1,.91-7.38q1-5,1.74-10.09a213.72,213.72,0,0,0,2.31-33.72c-1.21-116.82-97.4-211.4-214.22-210.74a212.06,212.06,0,0,0-126.34,42.4q-2.27,1.7-4.49,3.46a18.6,18.6,0,0,1-11.63,4.14q-.62,0-1.26,0a20.63,20.63,0,0,1-19.05-19.91q0-.53,0-1.06a20.21,20.21,0,0,1,7.91-15.23q1.6-1.26,3.22-2.49A251.89,251.89,0,0,1,682,161.25c134.6,0,244.65,105.1,252.54,237.72Q935,406.56,935,414.25Z" transform="translate(-429 -161.25)" style="fill:url(#linear-gradient-2)"/><path d="M887.18,528.93,693,397a20.5,20.5,0,0,0-28.48,5.43h0A20.5,20.5,0,0,0,670,430.87l194.16,132a20.5,20.5,0,0,0,28.48-5.43h0A20.5,20.5,0,0,0,887.18,528.93ZM682.5,423.25a8.5,8.5,0,1,1,8.5-8.5A8.5,8.5,0,0,1,682.5,423.25Z" transform="translate(-429 -161.25)" style="fill:url(#linear-gradient-3)"/></svg>