<svg id="Layer_1" data-name="Layer 1" xmlns="http://www.w3.org/2000/svg" xmlns:xlink="http://www.w3.org/1999/xlink" viewBox="0 0 240.38 143.16"><defs><linearGradient id="linear-gradient" x1="554.88" y1="347.02" x2="578.24" y2="347.02" gradientUnits="userSpaceOnUse"><stop offset="0" stop-color="#b5f"/><stop offset="1" stop-color="#2a61ff"/></linearGradient><linearGradient id="linear-gradient-2" x1="712.53" y1="347.02" x2="735.89" y2="347.02" xlink:href="#linear-gradient"/><linearGradient id="linear-gradient-3" x1="548.62" y1="420.3" x2="789" y2="420.3" xlink:href="#linear-gradient"/></defs><title>icon3</title><path d="M565.85,357.2a12.92,12.92,0,0,0,9-3.07,10.61,10.61,0,0,0,3.39-8.29,8,8,0,0,0-3-6.66,12.35,12.35,0,0,0-7.83-2.35,13.28,13.28,0,0,0-8.94,3.07,9.64,9.64,0,0,0-3.59,7.63,9.23,9.23,0,0,0,2.74,7.11Q560.37,357.2,565.85,357.2Z" transform="translate(-548.62 -336.84)" style="fill:url(#linear-gradient)"/><path d="M723.49,357.2a12.92,12.92,0,0,0,9-3.07,10.61,10.61,0,0,0,3.39-8.29,8,8,0,0,0-3-6.66,12.35,12.35,0,0,0-7.83-2.35,13.28,13.28,0,0,0-8.94,3.07,9.64,9.64,0,0,0-3.59,7.63,9.22,9.22,0,0,0,2.74,7.11Q718,357.2,723.49,357.2Z" transform="translate(-548.62 -336.84)" style="fill:url(#linear-gradient-2)"/><path d="M787.5,414.42a4.71,4.71,0,0,0-4.37-2l-32.89,1.44a51.65,51.65,0,0,1,8.09-11.68,105,105,0,0,1,11.61-11.29,50.72,50.72,0,0,1,10.7-7.18,17.58,17.58,0,0,0,6.07-4.44,10.21,10.21,0,0,0,2-6.66q0-3.78-1.37-5.61a4.16,4.16,0,0,0-3.46-1.83,12.44,12.44,0,0,0-3.2.52q-1.89.52-2.54.65a22.43,22.43,0,0,1-5,1q-4,0-8.81-.39l-6.2-.52a137.36,137.36,0,0,0-14.22-.91,4.62,4.62,0,0,0-4.11,2.41,10.29,10.29,0,0,0-1.5,5.55,8.78,8.78,0,0,0,1.5,5.16,4.71,4.71,0,0,0,4.37,2l18.4-.52a86,86,0,0,0-19.86,18.32,6.44,6.44,0,0,0-.89.86,116.65,116.65,0,0,1-9.4,10.31q-3.52,3.26-5.87,3.26a3.63,3.63,0,0,1-3.52-2.09,13.74,13.74,0,0,1-1-6q0-5.09,3.13-19.44,2.48-11.87,2.48-15.14,0-4.44-6.66-4.44-4.31,0-6.26,1.57t-3.13,5.74a140.66,140.66,0,0,0-3.85,17.16,108.51,108.51,0,0,0-1.46,13.12,77.7,77.7,0,0,1-6.11,6.32q-3.59,3.2-6.2,3.2a3.28,3.28,0,0,1-2.74-1.37,6.22,6.22,0,0,1-1-3.85q0-3.91,3.65-20.62,3.26-14.61,3.26-17.88a2.88,2.88,0,0,0-1.17-2.68,8.64,8.64,0,0,0-4.18-.72q-4.31,0-6.46,1.7a10.26,10.26,0,0,0-3.2,5.61,158.61,158.61,0,0,1-6.46,19.58,57.47,57.47,0,0,1-6.26,11.88q-2.94,3.91-4.89,3.92a2.24,2.24,0,0,1-2.09-1.11,8.12,8.12,0,0,1-.65-3.85q0-4.57,2.61-18.27.78-3.91,2.09-8.74a54.21,54.21,0,0,0,1.44-7,3.35,3.35,0,0,0-1.11-2.74q-1.11-.91-4-.91-5.09,0-7.44,1.7a10.9,10.9,0,0,0-3.65,5.61,112.32,112.32,0,0,0-4.31,17.29,104.59,104.59,0,0,0-1.16,11.6q-8.27.34-8.76.34a7.15,7.15,0,0,0-6.07,2.87,13.69,13.69,0,0,0-2,9.27,151.36,151.36,0,0,1,.91,17.62,113.79,113.79,0,0,1-1,15.79,68.11,68.11,0,0,1-2.55,11.88q-1.5,4.44-2.81,4.44-1.57,0-2.55-4.24a46.23,46.23,0,0,1-1-10.24q0-16.05,4.18-36.93,1.43-7.31,3.85-16.18t4.5-16.18q.52-1.83,2.15-7.5a36.69,36.69,0,0,0,1.63-7.24,4.42,4.42,0,0,0-1.37-3.78q-1.5-1.3-5.94-1.31a12.52,12.52,0,0,0-6.53,1.44q-2.35,1.44-3.52,5.61a5.87,5.87,0,0,0-4.83-2.09,29.94,29.94,0,0,0-17.42,5.68,42.7,42.7,0,0,0-17.94,34c-1.65,1.82-3.09,3.3-4.31,4.43q-3.52,3.26-5.87,3.26a3.63,3.63,0,0,1-3.52-2.09,13.74,13.74,0,0,1-1-6q0-5.09,3.13-19.44Q570,373.51,570,370.25q0-4.44-6.66-4.44-4.31,0-6.26,1.57T554,373.12a140.54,140.54,0,0,0-3.85,17.16,97.38,97.38,0,0,0-1.5,15.07q0,9.92,3.85,15.92t12.33,6q8.25,0,17.41-8.54a19.86,19.86,0,0,0,1.71,2.53,14.65,14.65,0,0,0,11.94,6q7.18,0,11.61-6.79a135.07,135.07,0,0,0-3.39,30.15q0,12.26,3.85,20.82T619.22,480q11,0,16.12-14.62t5.15-34.32q0-7.44-.52-14.88,2.48,0,3.78.13l3.48.09a19.88,19.88,0,0,0,2.59,5.45q3.72,5.42,9.59,5.42,5.09,0,9.53-4.76t6.66-13.64q0,8.74,2.94,13.57t9.2,4.83a25.31,25.31,0,0,0,14.68-4.44,52.35,52.35,0,0,0,6-4.84,20.53,20.53,0,0,0,1.69,3.27q3.85,6,12.33,6A20.63,20.63,0,0,0,733.07,424q1.15,5.53,6.6,5.53a23.73,23.73,0,0,0,5.74-1.3,16.16,16.16,0,0,1,5-1.17q5,0,17,.52,3.13.13,7.24.26t8.81.13a4.61,4.61,0,0,0,4.11-2.48,10.88,10.88,0,0,0,1.5-5.74A9,9,0,0,0,787.5,414.42Zm-176.76-13a23.61,23.61,0,0,1-3.92,8.94q-2.74,3.72-5.74,3.72a4.75,4.75,0,0,1-4.11-2.15,10.78,10.78,0,0,1-1.5-6.2,33.84,33.84,0,0,1,2.81-13.64,27.09,27.09,0,0,1,7.57-10.38,16.8,16.8,0,0,1,10.51-4Z" transform="translate(-548.62 -336.84)" style="fill:url(#linear-gradient-3)"/><text transform="translate(99.07 118.66) scale(0.99 1)" style="font-size:31.32823944091797px;fill:#494949;font-family:WaltographUI-Bold, Waltograph UI;font-weight:700">LAB</text></svg>