<svg id="Layer_1" data-name="Layer 1" xmlns="http://www.w3.org/2000/svg" viewBox="0 0 1377 719"><title>model3</title><rect width="1377" height="719" style="fill:#fff"/><path d="M521.54,370.11a7.82,7.82,0,0,1-2-.26l-22.33-6a7.7,7.7,0,0,1,4-14.88l22.34,6a7.71,7.71,0,0,1-2,15.15" transform="translate(-31 -85)" style="fill:#434c6d"/><path d="M441.75,744H271.93a23.12,23.12,0,0,1-23.12-23.12V543.2H464.45V720.83A23.13,23.13,0,0,1,441.35,744" transform="translate(-31 -85)" style="fill:#434c6d"/><path d="M465.33,544.07H249.41c-11.77,0-22-8.64-23.39-20.33a23.14,23.14,0,0,1,23-25.94H464.51c11.77,0,22,8.64,23.39,20.33a23.14,23.14,0,0,1-23,25.94" transform="translate(-31 -85)" style="fill:#2c3651"/><polygon points="294.64 411.93 356.62 411.93 356.62 280.97 294.64 280.97 294.64 411.93" style="fill:#a31c09"/><path d="M357,296.61l-11.57,14.47A87.84,87.84,0,0,0,326.13,366h61.66a87.84,87.84,0,0,0-19.26-54.9Z" transform="translate(-31 -85)" style="fill:#6c4126"/><polygon points="318.21 411.93 333.92 411.93 333.92 280.97 318.21 280.97 318.21 411.93" style="fill:#ce3929"/><polygon points="444.26 360.75 384.71 344.79 408.64 255.46 468.2 271.42 444.26 360.75" style="fill:#2c3651"/><path d="M516.47,440.83l-7.44-2a7.71,7.71,0,0,1-5.45-9.44l21.94-81.89a7.71,7.71,0,0,1,9.44-5.45l7.44,2a7.71,7.71,0,0,1,5.45,9.44l-21.94,81.89a7.71,7.71,0,0,1-9.44,5.45" transform="translate(-31 -85)" style="fill:#2c3651"/><path d="M499.2,356.41l-59.55-16,6-22.33a7.7,7.7,0,0,1,9.44-5.45l44.66,12a7.7,7.7,0,0,1,5.45,9.43Z" transform="translate(-31 -85)" style="fill:#434c6d"/><path d="M270.82,357.86l-59.55,16-4-14.89a30.83,30.83,0,1,1,59.55-16Z" transform="translate(-31 -85)" style="fill:#cc4b4c"/><path d="M248.81,497.8h59.4L270.83,358.29l-59.56,16,33.23,124a22.87,22.87,0,0,1,4.56-.46" transform="translate(-31 -85)" style="fill:#e39700"/><polygon points="422.45 412.8 436.81 359.17 392.15 347.2 374.57 412.8 422.45 412.8" style="fill:#434c6d"/><polygon points="295.51 604.87 434.32 604.87 434.32 512.33 295.51 512.33 295.51 604.87" style="fill:#ece8d8"/><polygon points="326.07 551.61 434.32 551.61 434.32 535.9 326.07 535.9 326.07 551.61" style="fill:#c9b693"/><polygon points="340.91 582.17 433.45 582.17 433.45 566.46 340.91 566.46 340.91 582.17" style="fill:#c9b693"/></svg>