<svg id="Layer_1" data-name="Layer 1" xmlns="http://www.w3.org/2000/svg" viewBox="0 0 1377 719"><title>model4</title><rect width="1377" height="719" style="fill:#fff"/><path d="M655.29,359.27H186.13A25.13,25.13,0,0,0,161,384.4V660.87A25.13,25.13,0,0,0,186.13,686H655.29a25.13,25.13,0,0,0,25.13-25.13V384.4A25.13,25.13,0,0,0,655.29,359.27Z" transform="translate(-31 -85)" style="fill:#ff4f19"/><rect x="364.58" y="559.11" width="50.27" height="41.89" style="fill:#e3001e"/><path d="M646.91,619v25.13a8.38,8.38,0,0,1-8.38,8.38H202.89a8.38,8.38,0,0,1-8.38-8.38V619l50-25.13,201.07,8.38,167.56-8.38Z" transform="translate(-31 -85)" style="fill:#e6be8a"/><path d="M206.12,630.75a265.64,265.64,0,0,1,214.59,5.13V334.28A265.63,265.63,0,0,0,199.49,332a8.49,8.49,0,0,0-5,7.74V623.06A8.37,8.37,0,0,0,206.12,630.75Z" transform="translate(-31 -85)" style="fill:#ffebb7"/><path d="M420.71,635.88a265.63,265.63,0,0,1,214.59-5.13,8.37,8.37,0,0,0,11.61-7.69V339.74a8.49,8.49,0,0,0-5-7.74,265.63,265.63,0,0,0-221.22,2.28Z" transform="translate(-31 -85)" style="fill:#ffd788"/><path d="M454.45,581.17a8.38,8.38,0,0,1-2.51-16.37c8.48-2.66,17.2-4.94,25.93-6.77a8.38,8.38,0,0,1,3.44,16.4c-8.2,1.72-16.39,3.86-24.34,6.36A8.44,8.44,0,0,1,454.45,581.17Z" transform="translate(-31 -85)" style="fill:#868491"/><path d="M613.63,581.17a8.4,8.4,0,0,1-2.51-.39,255.78,255.78,0,0,0-97.36-11,8.38,8.38,0,1,1-1.32-16.71,273,273,0,0,1,103.71,11.74,8.38,8.38,0,0,1-2.51,16.37Z" transform="translate(-31 -85)" style="fill:#868491"/><path d="M613.63,547.56a8.4,8.4,0,0,1-2.51-.39,256,256,0,0,0-154.15,0,8.38,8.38,0,1,1-5-16,272.7,272.7,0,0,1,164.2,0,8.38,8.38,0,0,1-2.51,16.37Z" transform="translate(-31 -85)" style="fill:#868491"/><path d="M454.45,514.15a8.38,8.38,0,0,1-2.51-16.37A273.66,273.66,0,0,1,547,485.49a8.38,8.38,0,0,1-.8,16.74A256.69,256.69,0,0,0,457,513.76,8.43,8.43,0,0,1,454.45,514.15Z" transform="translate(-31 -85)" style="fill:#868491"/><path d="M613.63,514.15a8.4,8.4,0,0,1-2.51-.39,258.13,258.13,0,0,0-32.46-7.92,8.38,8.38,0,0,1,2.91-16.5,275.57,275.57,0,0,1,34.58,8.44,8.38,8.38,0,0,1-2.51,16.37Z" transform="translate(-31 -85)" style="fill:#868491"/><path d="M613.63,480.54a8.4,8.4,0,0,1-2.51-.39,256,256,0,0,0-154.15,0,8.38,8.38,0,1,1-5-16,272.7,272.7,0,0,1,164.2,0,8.38,8.38,0,0,1-2.51,16.37Z" transform="translate(-31 -85)" style="fill:#868491"/><path d="M454.45,447a8.38,8.38,0,0,1-2.51-16.37,274.35,274.35,0,0,1,51.86-10.91,8.38,8.38,0,1,1,1.85,16.65A257.79,257.79,0,0,0,457,446.64,8.44,8.44,0,0,1,454.45,447Z" transform="translate(-31 -85)" style="fill:#868491"/><path d="M613.63,447a8.4,8.4,0,0,1-2.51-.39,256.79,256.79,0,0,0-73-11.79,8.38,8.38,0,0,1-8.25-8.51c.07-4.62,4.12-8.52,8.51-8.25a273.76,273.76,0,0,1,77.77,12.56A8.38,8.38,0,0,1,613.63,447Z" transform="translate(-31 -85)" style="fill:#868491"/><path d="M454.45,413.61a8.38,8.38,0,0,1-2.51-16.37,272.15,272.15,0,0,1,112.35-10.91,8.38,8.38,0,0,1,7.4,9.25,8.27,8.27,0,0,1-9.25,7.4A255.71,255.71,0,0,0,457,413.22,8.4,8.4,0,0,1,454.45,413.61Z" transform="translate(-31 -85)" style="fill:#868491"/><path d="M613.63,413.61a8.4,8.4,0,0,1-2.51-.39c-5.32-1.67-10.77-3.19-16.23-4.52a8.38,8.38,0,0,1,4-16.28c5.8,1.42,11.61,3,17.28,4.82a8.38,8.38,0,0,1-2.51,16.37Z" transform="translate(-31 -85)" style="fill:#868491"/><path d="M454.45,380a8.38,8.38,0,0,1-2.5-16.37c5.76-1.81,11.57-3.42,17.27-4.81a8.38,8.38,0,0,1,4,16.28c-5.35,1.3-10.81,2.82-16.22,4.52A8.39,8.39,0,0,1,454.45,380Z" transform="translate(-31 -85)" style="fill:#868491"/><path d="M613.63,380a8.4,8.4,0,0,1-2.51-.39,255.78,255.78,0,0,0-105.48-10.25,8.38,8.38,0,1,1-1.85-16.65,272.19,272.19,0,0,1,112.35,10.91A8.38,8.38,0,0,1,613.63,380Z" transform="translate(-31 -85)" style="fill:#868491"/><path d="M228.25,581.17a8.38,8.38,0,0,1-2.51-16.37c8.48-2.66,17.2-4.94,25.93-6.77a8.38,8.38,0,1,1,3.44,16.4c-8.2,1.72-16.39,3.86-24.34,6.36A8.44,8.44,0,0,1,228.25,581.17Z" transform="translate(-31 -85)" style="fill:#b4b6bc"/><path d="M387.43,581.17a8.4,8.4,0,0,1-2.51-.39,255.76,255.76,0,0,0-97.36-11,8.38,8.38,0,1,1-1.32-16.71,273,273,0,0,1,103.71,11.74,8.38,8.38,0,0,1-2.51,16.37Z" transform="translate(-31 -85)" style="fill:#b4b6bc"/><path d="M387.43,547.56a8.4,8.4,0,0,1-2.51-.39,256,256,0,0,0-154.15,0,8.38,8.38,0,0,1-5-16,272.7,272.7,0,0,1,164.2,0,8.38,8.38,0,0,1-2.51,16.37Z" transform="translate(-31 -85)" style="fill:#b4b6bc"/><path d="M228.25,514.15a8.38,8.38,0,0,1-2.51-16.37,273.73,273.73,0,0,1,95.07-12.28,8.38,8.38,0,0,1-.8,16.74,256.66,256.66,0,0,0-89.24,11.53A8.43,8.43,0,0,1,228.25,514.15Z" transform="translate(-31 -85)" style="fill:#b4b6bc"/><path d="M387.43,514.15a8.4,8.4,0,0,1-2.51-.39,258.13,258.13,0,0,0-32.46-7.92,8.38,8.38,0,0,1,2.91-16.5,275.57,275.57,0,0,1,34.58,8.44,8.38,8.38,0,0,1-2.51,16.37Z" transform="translate(-31 -85)" style="fill:#b4b6bc"/><path d="M228.25,480.54a8.38,8.38,0,0,1-2.51-16.37,274.06,274.06,0,0,1,146.91-4.81,8.38,8.38,0,1,1-4,16.28,257.12,257.12,0,0,0-137.93,4.52A8.44,8.44,0,0,1,228.25,480.54Z" transform="translate(-31 -85)" style="fill:#b4b6bc"/><path d="M228.25,447a8.38,8.38,0,0,1-2.51-16.37,274.35,274.35,0,0,1,51.86-10.91,8.38,8.38,0,1,1,1.85,16.65,257.79,257.79,0,0,0-48.69,10.25A8.44,8.44,0,0,1,228.25,447Z" transform="translate(-31 -85)" style="fill:#b4b6bc"/><path d="M370.68,442.36a8.47,8.47,0,0,1-2-.24,257.33,257.33,0,0,0-56.79-7.27,8.38,8.38,0,0,1-8.25-8.51,8.14,8.14,0,0,1,8.51-8.25,274.42,274.42,0,0,1,60.49,7.75,8.38,8.38,0,0,1-2,16.52Z" transform="translate(-31 -85)" style="fill:#b4b6bc"/><path d="M228.25,413.61a8.38,8.38,0,0,1-2.51-16.37,272.18,272.18,0,0,1,112.35-10.91,8.38,8.38,0,0,1,7.4,9.25,8.29,8.29,0,0,1-9.25,7.4,255.71,255.71,0,0,0-105.48,10.25A8.4,8.4,0,0,1,228.25,413.61Z" transform="translate(-31 -85)" style="fill:#b4b6bc"/><path d="M228.25,380a8.38,8.38,0,0,1-2.5-16.37c5.76-1.81,11.57-3.42,17.27-4.81a8.38,8.38,0,1,1,4,16.28c-5.35,1.3-10.81,2.82-16.22,4.52A8.39,8.39,0,0,1,228.25,380Z" transform="translate(-31 -85)" style="fill:#b4b6bc"/><path d="M370.68,375.33a8.47,8.47,0,0,1-2-.24,256.64,256.64,0,0,0-89.25-5.73,8.38,8.38,0,1,1-1.85-16.65,273.07,273.07,0,0,1,95.06,6.1,8.38,8.38,0,0,1-2,16.52Z" transform="translate(-31 -85)" style="fill:#b4b6bc"/><path d="M370.47,464.1a4.19,4.19,0,0,0,6.51,3.48l18.61-12.41,18.61,12.41a4.19,4.19,0,0,0,6.51-3.49V335a8.48,8.48,0,0,0-5-7.75,265.14,265.14,0,0,0-40-14,4.22,4.22,0,0,0-5.26,4.1Z" transform="translate(-31 -85)" style="fill:#5d647f"/></svg>