<svg id="Layer_1" data-name="Layer 1" xmlns="http://www.w3.org/2000/svg" viewBox="0 0 1377 719"><title>model1</title><rect width="1377" height="719" style="fill:#fff"/><path d="M571.06,373.86H524.73a9.27,9.27,0,0,0-9.27,9.27V633.29h64.86V383.12A9.27,9.27,0,0,0,571.06,373.86Z" transform="translate(-31 -85)" style="fill:#ff4f19"/><path d="M547.9,373.86H524.73a9.27,9.27,0,0,0-9.27,9.27V633.29H547.9Z" transform="translate(-31 -85)" style="fill:#e3001e"/><path d="M274.57,336.8H219a9.27,9.27,0,0,0-9.27,9.27V633.29h74.12V346.06A9.27,9.27,0,0,0,274.57,336.8Z" transform="translate(-31 -85)" style="fill:#e3001e"/><path d="M274.57,336.8h-27.8V633.29h37.06V346.06A9.27,9.27,0,0,0,274.57,336.8Z" transform="translate(-31 -85)" style="fill:#ff4f19"/><path d="M172.65,763a9.27,9.27,0,0,1-8.29-5.12L118,665.23a9.27,9.27,0,1,1,16.58-8.29l28.77,57.55V661.08a9.27,9.27,0,1,1,18.53,0v92.65a9.27,9.27,0,0,1-9.27,9.27Z" transform="translate(-31 -85)" style="fill:#868491"/><path d="M580.33,763a9.27,9.27,0,0,1-9.27-9.27V661.37a9.45,9.45,0,0,1,7.9-9.45,9.27,9.27,0,0,1,10.63,9.17v53.41l28.77-57.55a9.27,9.27,0,1,1,16.58,8.29l-46.33,92.65A9.27,9.27,0,0,1,580.33,763Z" transform="translate(-31 -85)" style="fill:#868491"/><path d="M367.22,336.8H348.69a9.27,9.27,0,0,0-9.27,9.27V633.29h37.06V346.06A9.27,9.27,0,0,0,367.22,336.8Z" transform="translate(-31 -85)" style="fill:#5d647f"/><path d="M506.2,336.8H487.67a9.27,9.27,0,0,0-9.27,9.27V633.29h37.06V346.06A9.27,9.27,0,0,0,506.2,336.8Z" transform="translate(-31 -85)" style="fill:#4bb9ec"/><path d="M200.45,364.59H181.92a9.27,9.27,0,0,0-9.27,9.27V632.27a1,1,0,0,0,1,1h36V373.86A9.27,9.27,0,0,0,200.45,364.59Z" transform="translate(-31 -85)" style="fill:#ff9100"/><path d="M163.39,392.39h-27.8a9.27,9.27,0,0,0-9.27,9.27V633.29h46.33V401.65A9.27,9.27,0,0,0,163.39,392.39Z" transform="translate(-31 -85)" style="fill:#00c37a"/><path d="M617.39,355.33h-27.8a9.27,9.27,0,0,0-9.27,9.27V633.29h46.33V364.59A9.27,9.27,0,0,0,617.39,355.33Z" transform="translate(-31 -85)" style="fill:#5d647f"/><path d="M469.14,309H422.82a9.27,9.27,0,0,0-9.27,9.27v315h64.86v-315A9.27,9.27,0,0,0,469.14,309Z" transform="translate(-31 -85)" style="fill:#ff9100"/><path d="M404.29,373.86H385.76a9.27,9.27,0,0,0-9.27,9.27V633.29h37.06V383.12A9.27,9.27,0,0,0,404.29,373.86Z" transform="translate(-31 -85)" style="fill:#00c37a"/><path d="M330.16,355.33H293.1a9.27,9.27,0,0,0-9.27,9.27V633.29h55.59V364.59A9.27,9.27,0,0,0,330.16,355.33Z" transform="translate(-31 -85)" style="fill:#4bb9ec"/><path d="M663.71,670.35H89.27A9.27,9.27,0,0,1,80,661.08V642.55a9.27,9.27,0,0,1,9.27-9.27H663.71a9.27,9.27,0,0,1,9.27,9.27v18.53A9.27,9.27,0,0,1,663.71,670.35Z" transform="translate(-31 -85)" style="fill:#e6be8a"/><rect x="178.71" y="279.59" width="37.06" height="18.53" style="fill:#5d647f"/><rect x="215.78" y="279.59" width="37.06" height="18.53" style="fill:#868491"/><rect x="178.71" y="501.96" width="37.06" height="18.53" style="fill:#5d647f"/><rect x="215.78" y="501.96" width="37.06" height="18.53" style="fill:#868491"/><rect x="364.02" y="316.65" width="18.53" height="18.53" style="fill:#00a077"/><rect x="364.02" y="492.69" width="18.53" height="18.53" style="fill:#00a077"/><rect x="484.47" y="316.65" width="32.43" height="18.53" style="fill:#ff9100"/><rect x="484.47" y="492.69" width="32.43" height="18.53" style="fill:#ff9100"/><rect x="516.9" y="316.65" width="32.43" height="18.53" style="fill:#ffcd00"/><rect x="516.9" y="492.69" width="32.43" height="18.53" style="fill:#ffcd00"/><path d="M283.84,364.59V633.29h27.8v-278H293.1A9.27,9.27,0,0,0,283.84,364.59Z" transform="translate(-31 -85)" style="fill:#009bca"/><path d="M172.65,633.29h18.53V364.59h-9.27a9.27,9.27,0,0,0-9.27,9.27Z" transform="translate(-31 -85)" style="fill:#ff4f19"/><path d="M126.33,633.29h23.16V392.39H134.43a8.1,8.1,0,0,0-8.1,8.1Z" transform="translate(-31 -85)" style="fill:#00a077"/><path d="M339.43,633.29H358V336.8h-9.27a9.27,9.27,0,0,0-9.27,9.27Z" transform="translate(-31 -85)" style="fill:#5c546a"/><path d="M376.49,633.29H395V373.86h-9.27a9.27,9.27,0,0,0-9.27,9.27Z" transform="translate(-31 -85)" style="fill:#00a077"/><rect x="345.49" y="316.65" width="18.53" height="18.53" style="fill:#5d647f"/><rect x="345.49" y="492.69" width="18.53" height="18.53" style="fill:#5d647f"/><path d="M413.55,633.29H446V309H422.82a9.27,9.27,0,0,0-9.27,9.27Z" transform="translate(-31 -85)" style="fill:#ff4f19"/><path d="M496.94,336.8h-9.27a9.27,9.27,0,0,0-9.27,9.27V633.29h18.53Z" transform="translate(-31 -85)" style="fill:#009bca"/><path d="M603.49,355.33h-13.9a9.27,9.27,0,0,0-9.27,9.27V633.29h23.16Z" transform="translate(-31 -85)" style="fill:#5c546a"/><path d="M80,651.82v9.27a9.27,9.27,0,0,0,9.27,9.27H663.71a9.27,9.27,0,0,0,9.27-9.27v-9.27Z" transform="translate(-31 -85)" style="fill:#c9a07c"/></svg>