<svg id="Layer_1" data-name="Layer 1" xmlns="http://www.w3.org/2000/svg" viewBox="0 0 1377 719"><title>model2</title><rect width="1377" height="719" style="fill:#fff"/><path d="M533.11,712.1l-40.4-180H474.35l41.32,183.65c.92,2.75,1.84,4.59,3.67,5.51a8.28,8.28,0,0,0,4.59.92h1.84C531.28,722.21,534,716.7,533.11,712.1Z" transform="translate(-31 -85)" style="fill:#344a5e"/><path d="M376.33,531.32,336,712.11a8.48,8.48,0,0,0,5.89,10l1.38.13c2.13,0,4.49.16,5.58-.92,1.84-.92,3.67-3.67,3.67-5.51l41.3-185.38H376.33Z" transform="translate(-31 -85)" style="fill:#344a5e"/><path d="M427.58,532.12l-3.67,164.22c0,4.59,3.67,9.17,8.26,9.17h0c4.59,0,8.26-3.67,9.17-8.26L445,532.12Z" transform="translate(-31 -85)" style="fill:#344a5e"/><polygon points="306.67 223.42 511.26 228.93 505.76 460.12 301.17 453.7 306.67 223.42" style="fill:#e8eae9"/><path d="M554.19,308.42a13,13,0,0,1-11,11h0L337.67,313a8.34,8.34,0,0,1-7.34-3.67q-2.75-2.75-2.75-8.26a11.16,11.16,0,0,1,11-11l204.59,6.42C549.6,297.41,554.19,302.92,554.19,308.42Z" transform="translate(-31 -85)" style="fill:#f3705a"/><path d="M547.77,551.54a8.34,8.34,0,0,1-3.67,7.34,10.42,10.42,0,0,1-7.34,2.75h0l-205.51-5.5a8.34,8.34,0,0,1-7.34-3.67q-2.75-2.75-2.75-8.26a11.16,11.16,0,0,1,11-11l204.59,6.42C543.18,540.53,547.77,546,547.77,551.54Z" transform="translate(-31 -85)" style="fill:#f3705a"/><path d="M276.2,321.27c-.92,3.67-3.67,6.42-5.5,6.42-1.83-.92-2.75-3.67-1.83-7.34s3.67-6.42,5.5-6.42C277.12,313.93,278,317.6,276.2,321.27Z" transform="translate(-31 -85)" style="fill:#ffd15c"/><path d="M232.17,321.27c.92,3.67,3.67,6.42,5.5,6.42,2.75-.92,2.75-4.59,1.83-8.26S235.84,313,234,313C231.25,313.93,231.25,317.6,232.17,321.27Z" transform="translate(-31 -85)" style="fill:#ffd15c"/><path d="M229.49,351.94l10.32-9.38S237,331.29,237,328.48s-6.57-19.7-3.75-28.15,1.88-15,16-16,16.89,4.69,21.58,9.38c4.69,5.63,3.75,22.52,3.75,25.33s-2.81,17.83-6.57,24.4v4.69L278.28,366v17.83l-10.32.94-45-9.38Z" transform="translate(-31 -85)" style="fill:#ffd15c"/><path d="M278.11,365.3l-11-16.51V344.2S252.42,357,240.5,342.37c0,0,8.26,21.1,38.53,26.61Z" transform="translate(-31 -85)" style="fill:#f7b64c"/><path d="M347.11,417.73s8.6-3.44,9.46-4.3c1.72-.86,2.58-2.58,5.16-3.44s6-3.44,7.74-3.44,4.3-.86,5.16-.86,7.74,2.58,7.74,2.58,0,3.44-2.58,3.44c-.86,0-7.74-1.72-8.6-1.72s2.58.86,2.58.86,6.88.86,7.74.86h2.09c.86-.86,2.58,0,2.58,1.72h0c0,.86,0,.86-.86,1.72a3,3,0,0,0-1.72.86h-1.84c-.68,0-.95.48-.61,1.07,1.36,2.37-.33,2.37-.33,2.37h-2.75a4.25,4.25,0,0,1-.86,2.58c-.86.86-.86,0-.86,0s.86,2.58-3.44,4.3c-3.44,1.72-12.9,1.72-14.62,1.72-1.72-.86-9.46,4.3-9.46,4.3Z" transform="translate(-31 -85)" style="fill:#ffd15c"/><path d="M244.09,722.19a4.77,4.77,0,0,0,3.67-1.83c.92-.92.92-4.59,0-7.34-1.83-4.59-1.83-2.75-1.83-2.75l-24.77.92s-.92,3.67,0,6.42,3.67,3.67,6.42,3.67C232.17,721.27,240.42,722.19,244.09,722.19Z" transform="translate(-31 -85)" style="fill:#344a5e"/><path d="M222.09,695.58s-.92,6.42-1.83,11a19.57,19.57,0,0,0,.92,11c1.83,1.83,9.17.92,13.76.92s7.34.92,10.09,0c2.75,0,1.83-8.26,0-12.84s-4.59-8.26-4.59-12.84v-4.59Z" transform="translate(-31 -85)" style="fill:#415a6b"/><path d="M305.06,716.13l2.75,1.83s.92.92,0,2.75a9.26,9.26,0,0,0-4.59,1.83c-3.67.92-8.26.92-13.76.92-5.5-.92-7.34-3.67-9.17-5.5a13.43,13.43,0,0,0-4.59-2.75V717h-11s-1.83-5.5,1.83-9.17l3.67-3.67C271.12,704.2,305.06,716.13,305.06,716.13Z" transform="translate(-31 -85)" style="fill:#344a5e"/><path d="M287.21,691.91s4.59,3.67,6.42,7.34,1.83,8.26,5.5,10.09,8.26,5.5,8.26,7.34a27.75,27.75,0,0,0-9.17,1.83c-4.59,1.83-11.93,1.83-14.68-.92-2.75-1.83-4.59-5.5-9.17-6.42-4.59-1.83-9.17,0-10.09-1.83-.92-2.75,0-12.84,2.75-16.51C270.7,690.08,287.21,691.91,287.21,691.91Z" transform="translate(-31 -85)" style="fill:#415a6b"/><path d="M290.88,378.15l7.34-6.42S301,382.73,301,391s-1.83,11.93,0,14.68,8.26,10.09,8.26,14.68.92,5.5,3.67,4.59,12.84-2.75,15.6-3.67c1.83-.92,21.1-6.42,21.1-6.42s-.92,19.27,9.17,22c0,0-29.36,10.09-34.86,11s-16.51,4.59-19.27,4.59-8.26-.92-11-4.59-6.42-10.09-6.42-12.84C288.13,432.28,290.88,378.15,290.88,378.15Z" transform="translate(-31 -85)" style="fill:#344a5e"/><path d="M290,473.56s-22.94,13.76-47.71,11-27.52-2.75-27.52-3.67S227.58,394.66,232.17,361h4.59c2.75,7.09,10.09,10.76,17.43,10.76a18.09,18.09,0,0,0,17.43-11.62h1.83l11,73.09Z" transform="translate(-31 -85)" style="fill:#8ad7f8"/><path d="M209.88,480c32.11,7.34,60.55,7.34,79.82-6.42,0,0,10.09,29.36,10.09,33.95s-1.83,3.67-1.83,11,0,56.88-.92,66.06-2.75,21.1-1.83,24.77,3.67,15.6,3.67,26.61-5.5,45.87-6.42,49.54.92,10.09.92,10.09-9.17-2.75-13.76,1.83c-4.59,3.67-11.93,4.59-14.68,0,0,0,0-20.18,1.83-29.36s0-39.45,0-46.79a207.58,207.58,0,0,0-.92-22.94c-.92-9.17-3.67-30.28-4.59-33s-5.5-18.35-5.5-18.35a135.19,135.19,0,0,1-3.67,21.1c-2.75,10.09-7.34,25.69-8.26,28.44-.92,3.67-3.67,26.61-3.67,34.86s2.75,20.18,3.67,27.52c.92,6.42.92,29.36.92,33v5.5s-2.75-3.67-9.17-3.67-11.93,5.5-11.93,5.5S216.3,691,216.3,686.4s-3.67-10.09-4.59-19.27-.92-43.12,0-55-1.83-40.37-3.67-57.8C207.13,537.78,204.37,497.41,209.88,480Z" transform="translate(-31 -85)" style="fill:#344a5e"/><path d="M267,348.79s5.5,10.09,5.5,20.18c.92,10.09,3.67,50.46,5.5,63.3,1.83,13.76,7.34,46.79,7.34,56,.92,9.17-.92,16.51,5.5,19.27s11,0,11,0-6.42-13.76-7.34-22c0-8.26-5.5-36.7-5.5-36.7s3.67-36.7,6.42-45c1.83-9.17,2.75-32.11,2.75-32.11s-22-12.84-25.69-17.43S267,348.79,267,348.79Z" transform="translate(-31 -85)" style="fill:#415a6b"/><path d="M202.81,447.87c-3.67.92-6.42,6.42-7.34,11.93s-1.83,11.93-1.83,11.93-14.68-15.6-19.27-20.18-9.17-13.76-11-18.35c-.92-3.67,2.75-14.68,5.5-19.27s11.93-24.77,16.51-34.86,9.17-18.35,9.17-18.35,4.59,11.93,5.5,22c.92,5.5,0,14.68,0,21.1a61.17,61.17,0,0,0-2.75,6.42c-.92,3.67-10.09,15.6-10.09,15.6a14.46,14.46,0,0,0,.92,3.67c.92,2.75,2.75,4.59,5.5,6.42.92.92,1.83,2.75,3.67,3.67A52.06,52.06,0,0,1,202.81,447.87Z" transform="translate(-31 -85)" style="fill:#344a5e"/><path d="M415.66,372.64l-54.13,52.29a2.6,2.6,0,0,0,3.67,3.67l52.29-53.21C419.33,373.56,416.57,370.81,415.66,372.64Z" transform="translate(-31 -85)" style="fill:#344a5e"/><path d="M367.73,426.33h1.16c2.74-1.83,5.48-3.66,7.31-6.4,1.83-1.83,2.74-4.57,3.66-7.31a11.59,11.59,0,0,1-5.48-.91h-1.83a2.92,2.92,0,0,0-1.36,1.3v1.83c.44.92,1.36.92,1.36,2H370.7a3.3,3.3,0,0,0-2.11.73v2.71h-3.44a3.16,3.16,0,0,0-.86,2.58A6.71,6.71,0,0,0,367.73,426.33Z" transform="translate(-31 -85)" style="fill:#ffd15c"/><path d="M235.62,319.74s.92-9.17,0-13.76,5.5-12.84,10.09-10.09,11.93,2.75,14.68-.92,11,2.75,11,9.17v14.68h.92c.92-1.83,3.67-10.09,2.75-14.68,0-6.42-6.42-22-22.94-21.1s-21.1,14.68-22,22.94c-.92,4.59,2.75,10.09,5.5,13.76Z" transform="translate(-31 -85)" style="fill:#415a6b"/><path d="M239.51,342.37s-3.67,11.93-2.75,22,.92,57.8.92,63.3-6.42,52.29-9.17,59.63c-2.75,6.42-9.17,22-19.27,22S189,502.92,189,502.92s11.93-73.39,10.09-89c0,0,2.75-19.27.92-29.36s-5.5-22-5.5-22,21.1-8.26,28.44-9.17S233.09,345.12,239.51,342.37Z" transform="translate(-31 -85)" style="fill:#415a6b"/></svg>